<svg xmlns="http://www.w3.org/2000/svg" viewBox="0 0 64 64">
  <!-- Outer petals -->
  <ellipse cx="32" cy="18" rx="14" ry="20" fill="#fff" opacity="0.9" transform="rotate(0,32,32)"/>
  <ellipse cx="32" cy="18" rx="14" ry="20" fill="#fff" opacity="0.85" transform="rotate(45,32,32)"/>
  <ellipse cx="32" cy="18" rx="14" ry="20" fill="#fff" opacity="0.85" transform="rotate(90,32,32)"/>
  <ellipse cx="32" cy="18" rx="14" ry="20" fill="#fff" opacity="0.85" transform="rotate(135,32,32)"/>
  <ellipse cx="32" cy="18" rx="14" ry="20" fill="#fff" opacity="0.9" transform="rotate(180,32,32)"/>
  <ellipse cx="32" cy="18" rx="14" ry="20" fill="#fff" opacity="0.85" transform="rotate(225,32,32)"/>
  <ellipse cx="32" cy="18" rx="14" ry="20" fill="#fff" opacity="0.85" transform="rotate(270,32,32)"/>
  <ellipse cx="32" cy="18" rx="14" ry="20" fill="#fff" opacity="0.85" transform="rotate(315,32,32)"/>
  <!-- Inner petals -->
  <ellipse cx="32" cy="22" rx="10" ry="14" fill="#f0f0f0" opacity="0.9" transform="rotate(22.5,32,32)"/>
  <ellipse cx="32" cy="22" rx="10" ry="14" fill="#f0f0f0" opacity="0.9" transform="rotate(67.5,32,32)"/>
  <ellipse cx="32" cy="22" rx="10" ry="14" fill="#f0f0f0" opacity="0.9" transform="rotate(112.5,32,32)"/>
  <ellipse cx="32" cy="22" rx="10" ry="14" fill="#f0f0f0" opacity="0.9" transform="rotate(157.5,32,32)"/>
  <ellipse cx="32" cy="22" rx="10" ry="14" fill="#f0f0f0" opacity="0.9" transform="rotate(202.5,32,32)"/>
  <ellipse cx="32" cy="22" rx="10" ry="14" fill="#f0f0f0" opacity="0.9" transform="rotate(247.5,32,32)"/>
  <ellipse cx="32" cy="22" rx="10" ry="14" fill="#f0f0f0" opacity="0.9" transform="rotate(292.5,32,32)"/>
  <ellipse cx="32" cy="22" rx="10" ry="14" fill="#f0f0f0" opacity="0.9" transform="rotate(337.5,32,32)"/>
  <!-- Center -->
  <circle cx="32" cy="32" r="5" fill="#e8e8e8"/>
  <circle cx="32" cy="32" r="2.5" fill="#d0d0d0"/>
</svg>
